<svg width="76" height="76" viewBox="0 0 76 76" fill="none" xmlns="http://www.w3.org/2000/svg">
<path d="M38 0.5C17.2625 0.5 0.5 17.2625 0.5 38C0.5 58.7375 17.2625 75.5 38 75.5C58.7375 75.5 75.5 58.7375 75.5 38C75.5 17.2625 58.7375 0.5 38 0.5ZM54.125 54.125C53.7781 54.4726 53.366 54.7484 52.9123 54.9366C52.4587 55.1248 51.9724 55.2217 51.4813 55.2217C50.9901 55.2217 50.5038 55.1248 50.0502 54.9366C49.5965 54.7484 49.1844 54.4726 48.8375 54.125L38 43.2875L27.1625 54.125C26.4613 54.8262 25.5103 55.2201 24.5187 55.2201C23.5272 55.2201 22.5762 54.8262 21.875 54.125C21.1738 53.4238 20.7799 52.4729 20.7799 51.4813C20.7799 50.9903 20.8766 50.5041 21.0645 50.0505C21.2524 49.5968 21.5278 49.1847 21.875 48.8375L32.7125 38L21.875 27.1625C21.1738 26.4613 20.7799 25.5103 20.7799 24.5187C20.7799 23.5272 21.1738 22.5762 21.875 21.875C22.5762 21.1738 23.5272 20.7799 24.5187 20.7799C25.5103 20.7799 26.4613 21.1738 27.1625 21.875L38 32.7125L48.8375 21.875C49.1847 21.5278 49.5968 21.2524 50.0505 21.0645C50.5041 20.8766 50.9903 20.7799 51.4813 20.7799C51.9722 20.7799 52.4584 20.8766 52.912 21.0645C53.3657 21.2524 53.7778 21.5278 54.125 21.875C54.4722 22.2222 54.7476 22.6343 54.9355 23.088C55.1234 23.5416 55.2201 24.0278 55.2201 24.5187C55.2201 25.0097 55.1234 25.4959 54.9355 25.9495C54.7476 26.4032 54.4722 26.8153 54.125 27.1625L43.2875 38L54.125 48.8375C55.55 50.2625 55.55 52.6625 54.125 54.125Z" fill="#B90404"/>
</svg>
